<svg width="32" height="32" viewBox="0 0 32 32" fill="none" xmlns="http://www.w3.org/2000/svg">
<path d="M29.8792 20.6766L16.0754 30.3615C15.8529 30.5178 15.5538 30.5176 15.3314 30.3615L1.52789 20.6766C1.30527 20.5204 1.21264 20.2458 1.29767 19.9932L6.57024 4.3223C6.6553 4.0696 6.89731 3.89985 7.17245 3.89985H24.2347C24.5096 3.89985 24.7516 4.0696 24.8367 4.3223L30.1093 19.9932C30.1943 20.2458 30.1017 20.5204 29.8792 20.6766ZM31.3133 19.6154L26.0407 3.9445C25.7858 3.18644 25.0599 2.67719 24.2347 2.67719H7.17245C6.34694 2.67719 5.62133 3.18644 5.36621 3.9445L0.093637 19.6154C-0.161249 20.3732 0.115819 21.1972 0.783648 21.6657L14.5872 31.3507C14.921 31.585 15.3123 31.702 15.7035 31.702C16.0946 31.702 16.4859 31.5848 16.8197 31.3507L30.6235 21.6657C31.2911 21.1972 31.5682 20.3732 31.3133 19.6154Z" fill="#56A3ED"/>
<path d="M29.8848 11.0254L16.0811 1.34043C15.8584 1.18413 15.5594 1.18437 15.3371 1.34043L1.5335 11.0254C1.31089 11.1816 1.21826 11.4562 1.30328 11.7088L6.57586 27.3797C6.66091 27.6324 6.90293 27.8022 7.17806 27.8022H24.2403C24.5152 27.8022 24.7572 27.6324 24.8423 27.3797L30.1148 11.7088C30.1999 11.4562 30.1072 11.1816 29.8848 11.0254ZM31.3188 12.0865L26.0463 27.7575C25.7914 28.5156 25.0656 29.0248 24.2403 29.0248H7.17806C6.35256 29.0248 5.6269 28.5155 5.37183 27.7575L0.0992523 12.0865C-0.155633 11.3288 0.121434 10.5048 0.78926 10.0362L14.5929 0.351296C14.9267 0.116985 15.3179 0 15.7091 0C16.1003 0 16.4915 0.11718 16.8253 0.351296L30.6291 10.0362C31.2967 10.5048 31.5738 11.3288 31.3188 12.0865Z" fill="#56A3ED"/>
</svg>
